<?xml version="1.0" encoding="UTF-8"?>
<svg xmlns="http://www.w3.org/2000/svg" viewBox="0 0 520 360" role="img">
<defs><style type="text/css">
.L{fill:none;stroke:#111;stroke-width:1.55;stroke-linecap:round;stroke-linejoin:round}
.A{fill:none;stroke:#111;stroke-width:1.2;stroke-linecap:round}
.D{fill:none;stroke:#111;stroke-width:1.2;stroke-dasharray:5 3.5;stroke-linecap:round}
.P{fill:#111;stroke:none}
.T{font-family:"Times New Roman",Times,serif;font-size:15px;font-style:italic;fill:#111}
.N{font-family:"Times New Roman",Times,serif;font-size:13px;fill:#111}
</style></defs>
<rect width="100%" height="100%" fill="#fff"/>
<line class="L" x1="110.00" y1="170.00" x2="410.00" y2="170.00"/>
<path class="A" d="M260.00,302.29 A200.00,200.00 0 0 0 260.00,37.71"/>
<path class="A" d="M260.00,37.71 A200.00,200.00 0 0 0 260.00,302.29"/>
<line class="L" x1="260.00" y1="22.71" x2="260.00" y2="317.29"/>
<path class="A" d="M260.00,158.00 L272.00,158.00 L272.00,170.00"/>
<line class="A" x1="185.00" y1="166.50" x2="185.00" y2="173.50"/>
<line class="A" x1="335.00" y1="166.50" x2="335.00" y2="173.50"/>
<circle class="P" cx="110.00" cy="170.00" r="2.1"/>
<text class="T" x="94.00" y="174.00">A</text>
<circle class="P" cx="410.00" cy="170.00" r="2.1"/>
<text class="T" x="416.00" y="174.00">B</text>
<circle class="P" cx="260.00" cy="170.00" r="2.1"/>
<text class="T" x="268.00" y="164.00">M</text>
<circle class="P" cx="260.00" cy="37.71" r="2.1"/>
<text class="T" x="268.00" y="31.71">C</text>
<circle class="P" cx="260.00" cy="302.29" r="2.1"/>
<text class="T" x="268.00" y="318.29">D</text>
</svg>
