<?xml version="1.0" encoding="UTF-8"?>
<svg xmlns="http://www.w3.org/2000/svg" viewBox="0 0 560 250" role="img">
<defs><style type="text/css">
.L{fill:none;stroke:#111;stroke-width:1.55;stroke-linecap:round;stroke-linejoin:round}
.A{fill:none;stroke:#111;stroke-width:1.2;stroke-linecap:round}
.D{fill:none;stroke:#111;stroke-width:1.15;stroke-dasharray:5 3.5;stroke-linecap:round}
.H{fill:none;stroke:#1a4a8a;stroke-width:1.5;stroke-linecap:round;stroke-linejoin:round}
.P{fill:#111;stroke:none}
.T{font-family:"Times New Roman",Times,serif;font-size:15px;font-style:italic;fill:#111}
.N{font-family:"Times New Roman",Times,serif;font-size:13px;fill:#111}
</style></defs>
<rect width="100%" height="100%" fill="#fff"/>
<path class="L" d="M150,28 L40,220 L280,220 Z"/>
<line class="L" x1="150.00" y1="28.00" x2="160.00" y2="220.00"/>
<line class="L" x1="89.50" y1="133.60" x2="221.50" y2="133.60"/>
<line class="A" x1="155.50" y1="128.60" x2="155.50" y2="138.60"/>
<line class="A" x1="160.00" y1="215.00" x2="160.00" y2="225.00"/>
<circle class="P" cx="150.00" cy="28.00" r="2.1"/>
<text class="T" x="146.00" y="20.00">A</text>
<circle class="P" cx="40.00" cy="220.00" r="2.1"/>
<text class="T" x="26.00" y="236.00">B</text>
<circle class="P" cx="280.00" cy="220.00" r="2.1"/>
<text class="T" x="284.00" y="236.00">C</text>
<circle class="P" cx="160.00" cy="220.00" r="2.1"/>
<text class="T" x="156.00" y="236.00">D</text>
<circle class="P" cx="89.50" cy="133.60" r="2.1"/>
<text class="T" x="73.50" y="137.60">E</text>
<circle class="P" cx="221.50" cy="133.60" r="2.1"/>
<text class="T" x="227.50" y="137.60">F</text>
<circle class="P" cx="155.50" cy="133.60" r="2.1"/>
<text class="T" x="161.50" y="125.60">G</text>
<line class="L" x1="360.00" y1="35.00" x2="360.00" y2="215.00"/>
<line class="L" x1="520.00" y1="35.00" x2="520.00" y2="215.00"/>
<line class="L" x1="395.00" y1="70.00" x2="395.00" y2="180.00"/>
<line class="L" x1="485.00" y1="70.00" x2="485.00" y2="180.00"/>
<line class="L" x1="360.00" y1="35.00" x2="520.00" y2="215.00"/>
<line class="L" x1="360.00" y1="215.00" x2="520.00" y2="35.00"/>
<line class="A" x1="365.00" y1="89.00" x2="355.00" y2="89.00"/>
<line class="A" x1="525.00" y1="161.00" x2="515.00" y2="161.00"/>
<line class="A" x1="400.00" y1="106.00" x2="390.00" y2="106.00"/>
<line class="A" x1="400.00" y1="111.00" x2="390.00" y2="111.00"/>
<line class="A" x1="490.00" y1="139.00" x2="480.00" y2="139.00"/>
<line class="A" x1="490.00" y1="144.00" x2="480.00" y2="144.00"/>
<circle class="P" cx="440.00" cy="125.00" r="2.1"/>
<text class="T" x="448.00" y="119.00">O</text>
<circle class="P" cx="360.00" cy="35.00" r="2.1"/>
<text class="T" x="344.00" y="31.00">A</text>
<circle class="P" cx="360.00" cy="215.00" r="2.1"/>
<text class="T" x="344.00" y="229.00">B</text>
<circle class="P" cx="520.00" cy="35.00" r="2.1"/>
<text class="T" x="526.00" y="31.00">C</text>
<circle class="P" cx="520.00" cy="215.00" r="2.1"/>
<text class="T" x="526.00" y="229.00">D</text>
<circle class="P" cx="395.00" cy="70.00" r="2.1"/>
<text class="T" x="379.00" y="70.00">E</text>
<circle class="P" cx="395.00" cy="180.00" r="2.1"/>
<text class="T" x="379.00" y="184.00">F</text>
<circle class="P" cx="485.00" cy="70.00" r="2.1"/>
<text class="T" x="491.00" y="70.00">G</text>
<circle class="P" cx="485.00" cy="180.00" r="2.1"/>
<text class="T" x="491.00" y="184.00">H</text>
</svg>
