<?xml version="1.0" encoding="UTF-8"?>
<svg xmlns="http://www.w3.org/2000/svg" viewBox="0 0 320 300" role="img">
<defs><style type="text/css">
.L{fill:none;stroke:#111;stroke-width:1.55;stroke-linecap:round;stroke-linejoin:round}
.A{fill:none;stroke:#111;stroke-width:1.2;stroke-linecap:round}
.D{fill:none;stroke:#111;stroke-width:1.2;stroke-dasharray:5 3.5;stroke-linecap:round}
.P{fill:#111;stroke:none}
.T{font-family:"Times New Roman",Times,serif;font-size:15px;font-style:italic;fill:#111}
.N{font-family:"Times New Roman",Times,serif;font-size:13px;fill:#111}
</style></defs>
<rect width="100%" height="100%" fill="#fff"/>
<path class="L" d="M60,60 L260,60 L260,260 L60,260 Z"/>
<line class="D" x1="260.00" y1="60.00" x2="60.00" y2="260.00"/>
<line class="L" x1="60.00" y1="60.00" x2="260.00" y2="132.79"/>
<line class="L" x1="60.00" y1="60.00" x2="153.26" y2="260.00"/>
<path class="A" d="M72.00,60.00 L72.00,72.00 L60.00,72.00"/>
<path class="A" d="M75.21,92.63 A36.00,36.00 0 0 0 93.83,72.31"/>
<text class="N" x="102.00" y="98.00">45°</text>
<circle class="P" cx="60.00" cy="60.00" r="2.1"/>
<text class="T" x="44.00" y="56.00">A</text>
<circle class="P" cx="260.00" cy="60.00" r="2.1"/>
<text class="T" x="266.00" y="56.00">B</text>
<circle class="P" cx="260.00" cy="260.00" r="2.1"/>
<text class="T" x="266.00" y="276.00">C</text>
<circle class="P" cx="60.00" cy="260.00" r="2.1"/>
<text class="T" x="44.00" y="276.00">D</text>
<circle class="P" cx="260.00" cy="132.79" r="2.1"/>
<text class="T" x="268.00" y="136.79">E</text>
<circle class="P" cx="153.26" cy="260.00" r="2.1"/>
<text class="T" x="149.26" y="276.00">F</text>
<circle class="P" cx="206.63" cy="113.37" r="2.1"/>
<text class="T" x="214.63" y="105.37">M</text>
<circle class="P" cx="123.60" cy="196.40" r="2.1"/>
<text class="T" x="107.60" y="200.40">N</text>
</svg>
