<?xml version="1.0" encoding="UTF-8"?>
<svg xmlns="http://www.w3.org/2000/svg" viewBox="0 0 520 270" role="img">
<defs><style type="text/css">
.L{fill:none;stroke:#111;stroke-width:1.55;stroke-linecap:round;stroke-linejoin:round}
.A{fill:none;stroke:#111;stroke-width:1.2;stroke-linecap:round}
.D{fill:none;stroke:#111;stroke-width:1.2;stroke-dasharray:5 3.5;stroke-linecap:round}
.P{fill:#111;stroke:none}
.T{font-family:"Times New Roman",Times,serif;font-size:15px;font-style:italic;fill:#111}
.N{font-family:"Times New Roman",Times,serif;font-size:13px;fill:#111}
</style></defs>
<rect width="100%" height="100%" fill="#fff"/>
<line class="D" x1="150.00" y1="25.00" x2="150.00" y2="235.00"/>
<text class="T" x="142.00" y="252.00">l</text>
<path class="L" d="M70,190 L70,70 L120,120 Z"/>
<path class="L" d="M230,190 L230,70 L180,120 Z"/>
<line class="A" x1="70.00" y1="190.00" x2="230.00" y2="190.00"/>
<path class="A" d="M141.00,190.00 L141.00,181.00 L150.00,181.00"/>
<circle class="P" cx="70.00" cy="190.00" r="2.1"/>
<text class="T" x="56.00" y="194.00">A</text>
<circle class="P" cx="70.00" cy="70.00" r="2.1"/>
<text class="T" x="56.00" y="66.00">B</text>
<circle class="P" cx="120.00" cy="120.00" r="2.1"/>
<text class="T" x="126.00" y="124.00">C</text>
<circle class="P" cx="230.00" cy="190.00" r="2.1"/>
<text class="T" x="236.00" y="194.00">A'</text>
<circle class="P" cx="230.00" cy="70.00" r="2.1"/>
<text class="T" x="236.00" y="66.00">B'</text>
<circle class="P" cx="180.00" cy="120.00" r="2.1"/>
<text class="T" x="160.00" y="124.00">C'</text>
<path class="L" d="M330,170 L350,80 L300,95 Z"/>
<path class="L" d="M430,190 L340,170 L355,220 Z"/>
<circle class="P" cx="390.00" cy="130.00" r="2.1"/>
<text class="T" x="398.00" y="122.00">O</text>
<path class="A" d="M355.05,153.30 A42.00,42.00 0 0 0 413.30,164.95"/>
<circle class="P" cx="330.00" cy="170.00" r="2.1"/>
<text class="T" x="316.00" y="182.00">A</text>
<circle class="P" cx="350.00" cy="80.00" r="2.1"/>
<text class="T" x="356.00" y="72.00">B</text>
<circle class="P" cx="300.00" cy="95.00" r="2.1"/>
<text class="T" x="284.00" y="91.00">C</text>
<circle class="P" cx="430.00" cy="190.00" r="2.1"/>
<text class="T" x="436.00" y="202.00">A'</text>
<circle class="P" cx="340.00" cy="170.00" r="2.1"/>
<text class="T" x="346.00" y="166.00">B'</text>
<circle class="P" cx="355.00" cy="220.00" r="2.1"/>
<text class="T" x="361.00" y="224.00">C'</text>
</svg>
